<svg width="300" height="300" viewBox="0 0 300 300" fill="none" xmlns="http://www.w3.org/2000/svg">
<rect width="300" height="300" rx="85" fill="url(#paint0_linear_2512_341)"/>
<path d="M198.6 121.4V127.25C198.6 132.15 196.65 136.35 193.2 138.8C191.05 140.4 188.4 141.15 185.65 141.15C183.95 141.15 182.25 140.9 180.5 140.3L153.6 131.35V180C153.6 193.1 142.95 203.75 129.85 203.75C116.75 203.75 106.1 193.1 106.1 180C106.1 166.9 116.75 156.25 129.85 156.25C136.15 156.25 141.85 158.75 146.1 162.75V110C146.1 105.15 148.1 100.95 151.55 98.4501C155 96.0001 159.6 95.4501 164.2 96.9501L186.3 104.35C193.1 106.6 198.6 114.25 198.6 121.4Z" fill="white"/>
<defs>
<linearGradient id="paint0_linear_2512_341" x1="26.5" y1="28" x2="263.5" y2="285" gradientUnits="userSpaceOnUse">
<stop stop-color="#795DDF"/>
<stop offset="1" stop-color="#EE68A3"/>
</linearGradient>
</defs>
</svg>
